<svg xmlns="http://www.w3.org/2000/svg" width="2000" height="600" fill="none" viewBox="0 0 2000 600"><path fill="url(#a)" d="M533.6 406c-3.467 0-6.267-.4-8.4-1.2-2.133-.533-3.2-1.6-3.2-3.2 0-3.2 4.4-5.6 13.2-7.2 10.133-1.867 17.067-4.933 20.8-9.2 4-4.267 6-11.333 6-21.2V195.2c0-12-1.6-21.2-4.8-27.6-2.933-6.4-9.467-10.533-19.6-12.4-4.533-.8-7.867-1.867-10-3.2-2.133-1.333-3.2-2.933-3.2-4.8 0-1.6 1.067-2.667 3.2-3.2 2.133-.8 4.933-1.2 8.4-1.2 9.867 0 18.133.133 24.8.4 6.933.267 13.733.533 20.4.8h74c8.533 0 16-.667 22.4-2 6.667-1.333 12.4-2 17.2-2 1.333 0 2.8.267 4.4.8 1.6.533 2.533 1.467 2.8 2.8.533 2.933.933 7.333 1.2 13.2.267 5.6.4 11.067.4 16.4.267 5.333.4 8.933.4 10.8 0 5.6-1.2 8.4-3.6 8.4-1.333 0-2.533-.4-3.6-1.2-1.067-1.067-1.867-2.267-2.4-3.6-1.067-4.533-2.4-8.4-4-11.6-1.6-3.467-3.333-6.133-5.2-8-3.733-4.267-7.867-7.067-12.4-8.4-4.533-1.6-9.333-2.4-14.4-2.4h-50.8c-6.133 0-9.867 2-11.2 6-1.333 4-2.133 8.667-2.4 14-.267 5.067-.4 11.333-.4 18.8v41.6c0 6.933.133 12.8.4 17.6 0 2.133.133 4.133.4 6 .533 1.867 1.733 2.8 3.6 2.8 8.533 0 17.2-.133 26-.4 8.8-.533 15.6-.8 20.4-.8 5.867 0 10.933-1.6 15.2-4.8 4.267-3.2 7.333-7.067 9.2-11.6.533-1.067 1.6-2.4 3.2-4 1.6-1.867 2.933-2.8 4-2.8 1.067 0 2.267.667 3.6 2 1.333 1.067 1.867 2.533 1.6 4.4a676.952 676.952 0 0 1-.8 12c-.267 3.467-.4 6.8-.4 10 0 4 .133 8.133.4 12.4.267 4 .533 8.933.8 14.8 0 1.867-.267 3.467-.8 4.8-.267 1.333-1.2 2-2.8 2-2.667 0-4.8-1.2-6.4-3.6-1.333-2.4-2.267-4.267-2.8-5.6-1.867-6.133-4.667-10.267-8.4-12.4-3.733-2.4-7.2-3.6-10.4-3.6h-10.4c-3.2-.267-6.4-.4-9.6-.4h-13.2c-4.267 0-8.533.267-12.8.8-2.667.267-4.933 1.2-6.8 2.8-1.867 1.333-2.8 3.733-2.8 7.2v37.6c.267 12.533.667 25.467 1.2 38.8.533 8.533 2.533 15.333 6 20.4 3.733 5.067 10.533 8.533 20.4 10.4 4.533.8 7.867 1.733 10 2.8 2.133 1.067 3.2 2.533 3.2 4.4 0 1.6-1.067 2.667-3.2 3.2-2.133.8-4.933 1.2-8.4 1.2-7.2 0-12.8-.267-16.8-.8-3.733-.533-7.2-.933-10.4-1.2-2.933-.533-6.933-.8-12-.8-6.4 0-12.133.267-17.2.8-4.8.267-9.733.667-14.8 1.2-5.067.533-11.2.8-18.4.8Zm327.488 5.6c-1.867 0-2.8-1.067-2.8-3.2 0-2.667.266-6.533.8-11.6.8-5.333 1.2-9.733 1.2-13.2v-2.4c-10.4 10.133-20.934 17.467-31.6 22-10.4 4.267-21.867 6.4-34.4 6.4-8.534 0-16.267-1.867-23.2-5.6-6.934-3.467-12.4-8.667-16.4-15.6-4-7.2-6-16-6-26.4v-81.2c0-5.867-1.334-10.533-4-14-2.667-3.467-7.067-6.4-13.2-8.8a15.64 15.64 0 0 1-3.601-2c-1.066-.8-1.599-2.267-1.599-4.4 0-2.4.533-4 1.599-4.8a12.46 12.46 0 0 1 4.401-1.6c9.066-.533 16-1.2 20.8-2 5.066-1.067 11.333-2.533 18.8-4.4.8-.267 1.333-.4 1.599-.4h1.601c2.933 0 4.266 1.867 4 5.6-.8 6.133-1.467 11.333-2 15.6-.267 4-.4 9.067-.4 15.2v78c0 6.4 1.6 12.4 4.8 18 3.2 5.333 7.333 9.733 12.4 13.2 5.333 3.467 10.8 5.2 16.4 5.2 6.933 0 12.933-.4 18-1.2 5.333-.8 10.533-3.067 15.6-6.8 2.933-2.133 6.666-5.6 11.2-10.4 4.533-4.8 6.8-11.333 6.8-19.6V278c0-5.6-1.734-9.733-5.2-12.4-3.2-2.933-6.934-4.933-11.2-6-4.267-1.067-7.734-1.6-10.4-1.6-2.4 0-4.4-.4-6-1.2-1.6-1.067-2.4-2.933-2.4-5.6 0-2.4.8-4 2.4-4.8 1.866-.8 3.866-1.2 6-1.2 8.266-.267 15.066-.533 20.4-.8 5.6-.533 10.533-1.2 14.8-2a364.37 364.37 0 0 0 14-3.6c.533-.267 1.2-.4 2-.4.8-.267 1.466-.4 2-.4 3.466 0 5.2 1.467 5.2 4.4 0 .267-.134.8-.4 1.6 0 .533-.134 1.2-.4 2-.267.8-.667 3.067-1.2 6.8-.267 3.733-.667 7.6-1.2 11.6-.267 4-.4 7.067-.4 9.2V366c0 7.2.666 12.4 2 15.6 1.6 2.933 3.333 4.4 5.2 4.4 2.133 0 5.2-.133 9.2-.4 4.266-.533 7.333-.8 9.2-.8 1.333 0 2.666.267 4 .8 1.333.533 2 2 2 4.4 0 2.133-.534 3.6-1.6 4.4-1.067.533-2.4.933-4 1.2-10.4 1.333-19.334 3.333-26.8 6-7.467 2.667-14.134 5.2-20 7.6l-3.6 1.2c-1.6.8-3.067 1.2-4.4 1.2Zm82.137-6.4c-2.4 0-4.4-.4-6-1.2-1.333-.533-2-1.6-2-3.2 0-2.133.8-3.467 2.4-4 1.6-.8 3.867-1.6 6.8-2.4 4-1.067 7.867-2.533 11.6-4.4 3.733-1.867 5.6-5.467 5.6-10.8v-86c0-7.2-.8-13.333-2.4-18.4-1.333-5.067-5.467-8.533-12.4-10.4-1.067-.533-2-1.067-2.8-1.6-.8-.8-1.2-2-1.2-3.6 0-2.933 1.2-4.533 3.6-4.8 9.333-2.4 16.933-5.333 22.8-8.8a176.704 176.704 0 0 0 17.2-11.6c.8-.533 1.467-.933 2-1.2.8-.533 1.6-.8 2.4-.8.533 0 .933.267 1.2.8.533.533.8 1.2.8 2 0 1.867-.4 5.733-1.2 11.6-.533 5.6-.8 10.267-.8 14v3.2c.267.8.533 1.333.8 1.6 9.335-8.8 19.205-15.467 29.605-20 10.66-4.533 22.26-6.8 34.8-6.8 13.06 0 23.86 5.333 32.4 16 8.53 10.667 12.8 23.867 12.8 39.6v85.2c0 5.333 1.86 8.933 5.6 10.8 3.73 1.6 7.6 3.067 11.6 4.4 2.13.8 4.13 1.733 6 2.8 2.13.8 3.19 2.267 3.19 4.4 0 1.6-.93 2.533-2.79 2.8-1.87.533-3.6.8-5.2.8-5.34 0-9.47-.267-12.4-.8-2.94-.267-5.74-.533-8.4-.8-2.67-.267-6.4-.4-11.2-.4-4.54 0-8.27.133-11.2.4-2.94.267-6 .533-9.2.8-2.94.533-7.07.8-12.4.8-1.34 0-3.07-.267-5.2-.8-1.87-.267-2.8-1.2-2.8-2.8 0-2.133.93-3.6 2.8-4.4 2.13-1.067 4.26-2 6.4-2.8 4-1.333 7.86-2.8 11.6-4.4 3.73-1.867 5.6-5.467 5.6-10.8v-84c0-11.733-3.34-20.8-10-27.2-6.4-6.667-15.07-10.133-26-10.4-9.6 0-18 1.6-25.2 4.8-7.2 2.933-13.605 6.667-19.205 11.2-1.067 1.067-1.867 2.533-2.4 4.4-.533 1.6-.8 3.2-.8 4.8v96.4c0 5.333 1.867 8.933 5.6 10.8a61.088 61.088 0 0 0 11.605 4.4c6.13 1.6 9.2 3.733 9.2 6.4 0 1.6-.67 2.667-2 3.2-1.34.8-3.34 1.2-6 1.2-5.34 0-9.605-.267-12.805-.8a940.565 940.565 0 0 1-8.4-.8c-2.667-.267-6.4-.4-11.2-.4-4.533 0-8.267.133-11.2.4-2.667.267-5.6.533-8.8.8-2.933.533-7.067.8-12.4.8Zm269.325 4.4c-13.06 0-23.33-4-30.8-12-7.2-8-10.8-19.867-10.8-35.6v-92.8c0-2.133-.8-3.6-2.4-4.4-1.6-1.067-5.06-1.6-10.4-1.6h-2.4c-1.33 0-2.53-.8-3.6-2.4-.8-1.867-1.2-3.733-1.2-5.6 0-.533.4-1.333 1.2-2.4.8-1.067 1.34-1.733 1.6-2 5.34-3.733 10.14-7.467 14.4-11.2 4.54-3.733 8.54-7.333 12-10.8 3.74-3.733 6.8-7.067 9.2-10 1.34-1.333 2.4-2.4 3.2-3.2 1.07-1.067 2.27-1.6 3.6-1.6 1.34 0 2.54.267 3.6.8 1.34.533 1.87 1.733 1.6 3.6l-2 18c-.26 2.933.4 4.933 2 6 1.6 1.067 4.14 1.6 7.6 1.6h45.6c1.07 0 2 .933 2.8 2.8.8 1.6 1.2 3.6 1.2 6s-.4 4.8-1.2 7.2c-.8 2.133-1.73 3.2-2.8 3.2h-39.6c-6.66 0-11.06.533-13.2 1.6-1.86 1.067-2.8 4.267-2.8 9.6v78.8c0 10.667 2.27 19.067 6.8 25.2 4.54 6.133 11.07 9.2 19.6 9.2 7.74 0 13.74-.533 18-1.6 4.27-1.333 8.14-3.2 11.6-5.6.54-.533 1.07-.8 1.6-.8 1.07 0 1.74.667 2 2 .54 1.067.8 2.267.8 3.6 0 1.333-2.26 4-6.8 8-4.26 4-10 7.733-17.2 11.2-6.93 3.467-14.53 5.2-22.8 5.2Zm135.38.4c-14.66 0-27.46-3.6-38.4-10.8-10.93-7.2-19.46-17.333-25.6-30.4-6.13-13.333-9.2-28.667-9.2-46 0-15.467 3.47-29.467 10.4-42 7.2-12.8 16.67-23.067 28.4-30.8 11.74-7.733 24.54-11.6 38.4-11.6 10.67 0 20.14 2.133 28.4 6.4 8.27 4.267 14.67 10.267 19.2 18 4.8 7.467 7.2 16.133 7.2 26 0 8.267-4 12.4-12 12.4h-84.4c-3.73 0-6.4 1.067-8 3.2-1.33 1.867-2 5.733-2 11.6 0 12.8 2.8 24.533 8.4 35.2 5.6 10.4 13.07 18.8 22.4 25.2 9.34 6.133 19.6 9.2 30.8 9.2 8 0 15.2-1.467 21.6-4.4 6.67-3.2 12.54-7.733 17.6-13.6 1.07-1.333 1.87-2.133 2.4-2.4.54-.533 1.2-.8 2-.8 2.14 0 3.2 1.333 3.2 4 0 5.067-2.4 10.667-7.2 16.8-4 5.067-8.8 9.467-14.4 13.2-5.6 3.733-11.73 6.533-18.4 8.4-6.66 2.133-13.6 3.2-20.8 3.2Zm-36.8-121.2h36.4c6.4 0 11.87-.133 16.4-.4 4.54-.267 8.94-.8 13.2-1.6 1.34-.267 2.14-1.067 2.4-2.4.54-1.6.8-3.733.8-6.4 0-7.733-3.46-14.267-10.4-19.6-6.66-5.6-14.66-8.4-24-8.4-6.13 0-12.26 1.867-18.4 5.6-6.13 3.467-11.2 7.867-15.2 13.2-4 5.333-6 10.667-6 16 0 2.667 1.6 4 4.8 4Zm125.06 116.4c-2.4 0-4.4-.4-6-1.2-1.33-.533-2-1.6-2-3.2 0-2.133.8-3.467 2.4-4 1.6-.8 3.87-1.6 6.8-2.4 4-1.067 7.87-2.533 11.6-4.4 3.74-1.867 5.6-5.467 5.6-10.8v-86c0-7.2-.8-13.333-2.4-18.4-1.33-5.067-5.46-8.533-12.4-10.4-1.06-.533-2-1.067-2.8-1.6-.8-.8-1.2-2-1.2-3.6 0-2.933 1.2-4.533 3.6-4.8 9.34-2.4 16.94-5.333 22.8-8.8 5.87-3.467 11.6-7.333 17.2-11.6.8-.533 1.47-.933 2-1.2.8-.533 1.6-.8 2.4-.8.54 0 .94.267 1.2.8.54.533.8 1.2.8 2 0 1.867-.4 5.733-1.2 11.6-.53 5.6-.8 10.267-.8 14v3.2c.27.8.54 1.333.8 1.6 9.34-8.8 19.2-15.467 29.6-20 10.67-4.533 22.27-6.8 34.8-6.8 13.07 0 23.87 5.333 32.4 16 8.54 10.667 12.8 23.867 12.8 39.6v85.2c0 5.333 1.87 8.933 5.6 10.8 3.74 1.6 7.6 3.067 11.6 4.4 2.14.8 4.14 1.733 6 2.8 2.14.8 3.2 2.267 3.2 4.4 0 1.6-.93 2.533-2.8 2.8-1.86.533-3.6.8-5.2.8-5.33 0-9.46-.267-12.4-.8-2.93-.267-5.73-.533-8.4-.8-2.66-.267-6.4-.4-11.2-.4-4.53 0-8.26.133-11.2.4-2.93.267-6 .533-9.2.8-2.93.533-7.06.8-12.4.8-1.33 0-3.06-.267-5.2-.8-1.86-.267-2.8-1.2-2.8-2.8 0-2.133.94-3.6 2.8-4.4 2.14-1.067 4.27-2 6.4-2.8 4-1.333 7.87-2.8 11.6-4.4 3.74-1.867 5.6-5.467 5.6-10.8v-84c0-11.733-3.33-20.8-10-27.2-6.4-6.667-15.06-10.133-26-10.4-9.6 0-18 1.6-25.2 4.8-7.2 2.933-13.6 6.667-19.2 11.2-1.06 1.067-1.86 2.533-2.4 4.4-.53 1.6-.8 3.2-.8 4.8v96.4c0 5.333 1.87 8.933 5.6 10.8a61.221 61.221 0 0 0 11.6 4.4c6.14 1.6 9.2 3.733 9.2 6.4 0 1.6-.66 2.667-2 3.2-1.33.8-3.33 1.2-6 1.2-5.33 0-9.6-.267-12.8-.8-2.93-.267-5.73-.533-8.4-.8-2.66-.267-6.4-.4-11.2-.4-4.53 0-8.26.133-11.2.4-2.66.267-5.6.533-8.8.8-2.93.533-7.06.8-12.4.8Zm336.53 6.4c-.53 0-1.46-.533-2.8-1.6-1.06-1.067-1.6-1.867-1.6-2.4 0-2.667.27-6.4.8-11.2.8-5.067 1.2-9.333 1.2-12.8v-2.4c-4 6.133-10.4 12.4-19.2 18.8-8.8 6.4-19.86 9.6-33.2 9.6-15.2 0-28.4-4-39.6-12-10.93-8-19.46-18.267-25.6-30.8-5.86-12.533-8.8-25.467-8.8-38.8 0-15.467 3.6-30 10.8-43.6 7.2-13.6 17.47-24.667 30.8-33.2 13.6-8.533 29.74-12.8 48.4-12.8a81.3 81.3 0 0 1 16 1.6c5.6.8 9.87 1.733 12.8 2.8 2.4.8 4.14 1.2 5.2 1.2 1.87 0 2.8-3.2 2.8-9.6v-56.8c0-10.933-1.73-18.267-5.2-22-3.46-3.733-8.4-6.133-14.8-7.2-2.4-.533-3.6-2.267-3.6-5.2 0-2.4 1.07-4 3.2-4.8 11.74-2.933 20.94-5.733 27.6-8.4 6.67-2.667 11.87-4.8 15.6-6.4 1.07-.533 2-.8 2.8-.8 1.07-.267 1.87-.4 2.4-.4 1.6 0 2.54.8 2.8 2.4 0 1.6-.26 4.4-.8 8.4-.26 3.733-.66 9.333-1.2 16.8-.53 7.467-.8 17.2-.8 29.2V360c0 9.067.67 15.733 2 20 1.34 4 3.47 6 6.4 6 1.34 0 3.6-.133 6.8-.4l10.4-.8c4.8-.267 7.2.933 7.2 3.6 0 1.867-.66 3.6-2 5.2-1.06 1.333-2.26 2-3.6 2a154.285 154.285 0 0 0-22 4.8c-7.2 1.867-15.46 4.8-24.8 8.8-2.13 1.067-3.6 1.733-4.4 2-.53.267-1.2.4-2 .4Zm-40.4-22.8c6.94 0 13.74-1.733 20.4-5.2 6.67-3.733 12.54-8.533 17.6-14.4l.4-72c0-7.2-2.13-14.267-6.4-21.2-4-6.933-9.73-12.533-17.2-16.8-7.2-4.533-15.73-6.8-25.6-6.8-6.13 0-13.06 1.867-20.8 5.6-7.73 3.733-14.4 10.4-20 20-5.6 9.333-8.4 22.933-8.4 40.8 0 15.2 2.27 27.467 6.8 36.8 4.54 9.067 10 16 16.4 20.8 6.67 4.8 13.34 8.133 20 10 6.94 1.6 12.54 2.4 16.8 2.4Z"/><path fill="url(#b)" d="M533.6 406c-3.467 0-6.267-.4-8.4-1.2-2.133-.533-3.2-1.6-3.2-3.2 0-3.2 4.4-5.6 13.2-7.2 10.133-1.867 17.067-4.933 20.8-9.2 4-4.267 6-11.333 6-21.2V195.2c0-12-1.6-21.2-4.8-27.6-2.933-6.4-9.467-10.533-19.6-12.4-4.533-.8-7.867-1.867-10-3.2-2.133-1.333-3.2-2.933-3.2-4.8 0-1.6 1.067-2.667 3.2-3.2 2.133-.8 4.933-1.2 8.4-1.2 9.867 0 18.133.133 24.8.4 6.933.267 13.733.533 20.4.8h74c8.533 0 16-.667 22.4-2 6.667-1.333 12.4-2 17.2-2 1.333 0 2.8.267 4.4.8 1.6.533 2.533 1.467 2.8 2.8.533 2.933.933 7.333 1.2 13.2.267 5.6.4 11.067.4 16.4.267 5.333.4 8.933.4 10.8 0 5.6-1.2 8.4-3.6 8.4-1.333 0-2.533-.4-3.6-1.2-1.067-1.067-1.867-2.267-2.4-3.6-1.067-4.533-2.4-8.4-4-11.6-1.6-3.467-3.333-6.133-5.2-8-3.733-4.267-7.867-7.067-12.4-8.4-4.533-1.6-9.333-2.4-14.4-2.4h-50.8c-6.133 0-9.867 2-11.2 6-1.333 4-2.133 8.667-2.4 14-.267 5.067-.4 11.333-.4 18.8v41.6c0 6.933.133 12.8.4 17.6 0 2.133.133 4.133.4 6 .533 1.867 1.733 2.8 3.6 2.8 8.533 0 17.2-.133 26-.4 8.8-.533 15.6-.8 20.4-.8 5.867 0 10.933-1.6 15.2-4.8 4.267-3.2 7.333-7.067 9.2-11.6.533-1.067 1.6-2.4 3.2-4 1.6-1.867 2.933-2.8 4-2.8 1.067 0 2.267.667 3.6 2 1.333 1.067 1.867 2.533 1.6 4.4a676.952 676.952 0 0 1-.8 12c-.267 3.467-.4 6.8-.4 10 0 4 .133 8.133.4 12.4.267 4 .533 8.933.8 14.8 0 1.867-.267 3.467-.8 4.8-.267 1.333-1.2 2-2.8 2-2.667 0-4.8-1.2-6.4-3.6-1.333-2.4-2.267-4.267-2.8-5.6-1.867-6.133-4.667-10.267-8.4-12.4-3.733-2.4-7.2-3.6-10.4-3.6h-10.4c-3.2-.267-6.4-.4-9.6-.4h-13.2c-4.267 0-8.533.267-12.8.8-2.667.267-4.933 1.2-6.8 2.8-1.867 1.333-2.8 3.733-2.8 7.2v37.6c.267 12.533.667 25.467 1.2 38.8.533 8.533 2.533 15.333 6 20.4 3.733 5.067 10.533 8.533 20.4 10.4 4.533.8 7.867 1.733 10 2.8 2.133 1.067 3.2 2.533 3.2 4.4 0 1.6-1.067 2.667-3.2 3.2-2.133.8-4.933 1.2-8.4 1.2-7.2 0-12.8-.267-16.8-.8-3.733-.533-7.2-.933-10.4-1.2-2.933-.533-6.933-.8-12-.8-6.4 0-12.133.267-17.2.8-4.8.267-9.733.667-14.8 1.2-5.067.533-11.2.8-18.4.8Z"/><path fill="url(#c)" d="M861.088 411.6c-1.867 0-2.8-1.067-2.8-3.2 0-2.667.266-6.533.8-11.6.8-5.333 1.2-9.733 1.2-13.2v-2.4c-10.4 10.133-20.934 17.467-31.6 22-10.4 4.267-21.867 6.4-34.4 6.4-8.534 0-16.267-1.867-23.2-5.6-6.934-3.467-12.4-8.667-16.4-15.6-4-7.2-6-16-6-26.4v-81.2c0-5.867-1.334-10.533-4-14-2.667-3.467-7.067-6.4-13.2-8.8a15.613 15.613 0 0 1-3.6-2c-1.067-.8-1.6-2.267-1.6-4.4 0-2.4.533-4 1.6-4.8 1.333-.8 2.8-1.333 4.4-1.6 9.066-.533 16-1.2 20.8-2 5.066-1.067 11.333-2.533 18.8-4.4.8-.267 1.333-.4 1.6-.4h1.6c2.933 0 4.266 1.867 4 5.6-.8 6.133-1.467 11.333-2 15.6-.267 4-.4 9.067-.4 15.2v78c0 6.4 1.6 12.4 4.8 18 3.2 5.333 7.333 9.733 12.4 13.2 5.333 3.467 10.8 5.2 16.4 5.2 6.933 0 12.933-.4 18-1.2 5.333-.8 10.533-3.067 15.6-6.8 2.933-2.133 6.666-5.6 11.2-10.4 4.533-4.8 6.8-11.333 6.8-19.6V278c0-5.6-1.734-9.733-5.2-12.4-3.2-2.933-6.934-4.933-11.2-6-4.267-1.067-7.734-1.6-10.4-1.6-2.4 0-4.4-.4-6-1.2-1.6-1.067-2.4-2.933-2.4-5.6 0-2.4.8-4 2.4-4.8 1.866-.8 3.866-1.2 6-1.2 8.266-.267 15.066-.533 20.4-.8 5.6-.533 10.533-1.2 14.8-2a364.37 364.37 0 0 0 14-3.6c.533-.267 1.2-.4 2-.4.8-.267 1.466-.4 2-.4 3.466 0 5.2 1.467 5.2 4.4 0 .267-.134.8-.4 1.6 0 .533-.134 1.2-.4 2-.267.8-.667 3.067-1.2 6.8-.267 3.733-.667 7.6-1.2 11.6-.267 4-.4 7.067-.4 9.2V366c0 7.2.666 12.4 2 15.6 1.6 2.933 3.333 4.4 5.2 4.4 2.133 0 5.2-.133 9.2-.4 4.266-.533 7.333-.8 9.2-.8 1.333 0 2.666.267 4 .8 1.333.533 2 2 2 4.4 0 2.133-.534 3.6-1.6 4.4-1.067.533-2.4.933-4 1.2-10.4 1.333-19.334 3.333-26.8 6-7.467 2.667-14.134 5.2-20 7.6l-3.6 1.2c-1.6.8-3.067 1.2-4.4 1.2Z"/><path fill="url(#d)" d="M943.225 405.2c-2.4 0-4.4-.4-6-1.2-1.333-.533-2-1.6-2-3.2 0-2.133.8-3.467 2.4-4 1.6-.8 3.867-1.6 6.8-2.4 4-1.067 7.867-2.533 11.6-4.4 3.733-1.867 5.6-5.467 5.6-10.8v-86c0-7.2-.8-13.333-2.4-18.4-1.333-5.067-5.467-8.533-12.4-10.4-1.067-.533-2-1.067-2.8-1.6-.8-.8-1.2-2-1.2-3.6 0-2.933 1.2-4.533 3.6-4.8 9.333-2.4 16.933-5.333 22.8-8.8a176.704 176.704 0 0 0 17.2-11.6c.8-.533 1.467-.933 2-1.2.8-.533 1.6-.8 2.4-.8.533 0 .933.267 1.2.8.533.533.8 1.2.8 2 0 1.867-.4 5.733-1.2 11.6-.533 5.6-.8 10.267-.8 14v3.2c.267.8.533 1.333.8 1.6 9.335-8.8 19.195-15.467 29.595-20 10.67-4.533 22.27-6.8 34.8-6.8 13.07 0 23.87 5.333 32.4 16 8.54 10.667 12.8 23.867 12.8 39.6v85.2c0 5.333 1.87 8.933 5.6 10.8 3.74 1.6 7.6 3.067 11.6 4.4 2.14.8 4.14 1.733 6 2.8 2.14.8 3.2 2.267 3.2 4.4 0 1.6-.93 2.533-2.8 2.8-1.86.533-3.6.8-5.2.8-5.33 0-9.46-.267-12.39-.8a929.9 929.9 0 0 1-8.41-.8c-2.66-.267-6.4-.4-11.2-.4-4.53 0-8.26.133-11.2.4-2.93.267-6 .533-9.2.8-2.93.533-7.06.8-12.4.8-1.33 0-3.06-.267-5.2-.8-1.86-.267-2.8-1.2-2.8-2.8 0-2.133.94-3.6 2.8-4.4 2.14-1.067 4.27-2 6.4-2.8 4-1.333 7.87-2.8 11.6-4.4 3.74-1.867 5.61-5.467 5.61-10.8v-84c0-11.733-3.34-20.8-10.01-27.2-6.4-6.667-15.06-10.133-26-10.4-9.6 0-18 1.6-25.2 4.8-7.2 2.933-13.595 6.667-19.195 11.2-1.067 1.067-1.867 2.533-2.4 4.4-.533 1.6-.8 3.2-.8 4.8v96.4c0 5.333 1.867 8.933 5.6 10.8a60.997 60.997 0 0 0 11.595 4.4c6.14 1.6 9.2 3.733 9.2 6.4 0 1.6-.66 2.667-2 3.2-1.33.8-3.33 1.2-6 1.2-5.33 0-9.595-.267-12.795-.8a940.565 940.565 0 0 1-8.4-.8c-2.667-.267-6.4-.4-11.2-.4-4.533 0-8.267.133-11.2.4-2.667.267-5.6.533-8.8.8-2.933.533-7.067.8-12.4.8Z"/><path fill="url(#e)" d="M1212.55 409.6c-13.06 0-23.33-4-30.8-12-7.2-8-10.8-19.867-10.8-35.6v-92.8c0-2.133-.8-3.6-2.4-4.4-1.6-1.067-5.06-1.6-10.4-1.6h-2.4c-1.33 0-2.53-.8-3.6-2.4-.8-1.867-1.2-3.733-1.2-5.6 0-.533.4-1.333 1.2-2.4.8-1.067 1.34-1.733 1.6-2 5.34-3.733 10.14-7.467 14.4-11.2 4.54-3.733 8.54-7.333 12-10.8 3.74-3.733 6.8-7.067 9.2-10 1.34-1.333 2.4-2.4 3.2-3.2 1.07-1.067 2.27-1.6 3.6-1.6 1.34 0 2.54.267 3.6.8 1.34.533 1.87 1.733 1.6 3.6l-2 18c-.26 2.933.4 4.933 2 6 1.6 1.067 4.14 1.6 7.6 1.6h45.6c1.07 0 2 .933 2.8 2.8.8 1.6 1.2 3.6 1.2 6s-.4 4.8-1.2 7.2c-.8 2.133-1.73 3.2-2.8 3.2h-39.6c-6.66 0-11.06.533-13.2 1.6-1.86 1.067-2.8 4.267-2.8 9.6v78.8c0 10.667 2.27 19.067 6.8 25.2 4.54 6.133 11.07 9.2 19.6 9.2 7.74 0 13.74-.533 18-1.6 4.27-1.333 8.14-3.2 11.6-5.6.54-.533 1.07-.8 1.6-.8 1.07 0 1.74.667 2 2 .54 1.067.8 2.267.8 3.6 0 1.333-2.26 4-6.8 8-4.26 4-10 7.733-17.2 11.2-6.93 3.467-14.53 5.2-22.8 5.2Z"/><path fill="url(#f)" d="M1347.93 410c-14.66 0-27.46-3.6-38.4-10.8-10.93-7.2-19.46-17.333-25.6-30.4-6.13-13.333-9.2-28.667-9.2-46 0-15.467 3.47-29.467 10.4-42 7.2-12.8 16.67-23.067 28.4-30.8 11.74-7.733 24.54-11.6 38.4-11.6 10.67 0 20.14 2.133 28.4 6.4 8.27 4.267 14.67 10.267 19.2 18 4.8 7.467 7.2 16.133 7.2 26 0 8.267-4 12.4-12 12.4h-84.4c-3.73 0-6.4 1.067-8 3.2-1.33 1.867-2 5.733-2 11.6 0 12.8 2.8 24.533 8.4 35.2 5.6 10.4 13.07 18.8 22.4 25.2 9.34 6.133 19.6 9.2 30.8 9.2 8 0 15.2-1.467 21.6-4.4 6.67-3.2 12.54-7.733 17.6-13.6 1.07-1.333 1.87-2.133 2.4-2.4.54-.533 1.2-.8 2-.8 2.14 0 3.2 1.333 3.2 4 0 5.067-2.4 10.667-7.2 16.8-4 5.067-8.8 9.467-14.4 13.2-5.6 3.733-11.73 6.533-18.4 8.4-6.66 2.133-13.6 3.2-20.8 3.2Zm-36.8-121.2h36.4c6.4 0 11.87-.133 16.4-.4 4.54-.267 8.94-.8 13.2-1.6 1.34-.267 2.14-1.067 2.4-2.4.54-1.6.8-3.733.8-6.4 0-7.733-3.46-14.267-10.4-19.6-6.66-5.6-14.66-8.4-24-8.4-6.13 0-12.26 1.867-18.4 5.6-6.13 3.467-11.2 7.867-15.2 13.2-4 5.333-6 10.667-6 16 0 2.667 1.6 4 4.8 4Z"/><path fill="url(#g)" d="M1436.19 405.2c-2.4 0-4.4-.4-6-1.2-1.33-.533-2-1.6-2-3.2 0-2.133.8-3.467 2.4-4 1.6-.8 3.87-1.6 6.8-2.4 4-1.067 7.87-2.533 11.6-4.4 3.74-1.867 5.6-5.467 5.6-10.8v-86c0-7.2-.8-13.333-2.4-18.4-1.33-5.067-5.46-8.533-12.4-10.4-1.06-.533-2-1.067-2.8-1.6-.8-.8-1.2-2-1.2-3.6 0-2.933 1.2-4.533 3.6-4.8 9.34-2.4 16.94-5.333 22.8-8.8 5.87-3.467 11.6-7.333 17.2-11.6.8-.533 1.47-.933 2-1.2.8-.533 1.6-.8 2.4-.8.54 0 .94.267 1.2.8.54.533.8 1.2.8 2 0 1.867-.4 5.733-1.2 11.6-.53 5.6-.8 10.267-.8 14v3.2c.27.8.54 1.333.8 1.6 9.34-8.8 19.2-15.467 29.6-20 10.67-4.533 22.27-6.8 34.8-6.8 13.07 0 23.87 5.333 32.4 16 8.54 10.667 12.8 23.867 12.8 39.6v85.2c0 5.333 1.87 8.933 5.6 10.8 3.74 1.6 7.6 3.067 11.6 4.4 2.14.8 4.14 1.733 6 2.8 2.14.8 3.2 2.267 3.2 4.4 0 1.6-.93 2.533-2.8 2.8-1.86.533-3.6.8-5.2.8-5.33 0-9.46-.267-12.4-.8-2.93-.267-5.73-.533-8.4-.8-2.66-.267-6.4-.4-11.2-.4-4.53 0-8.26.133-11.2.4-2.93.267-6 .533-9.2.8-2.93.533-7.06.8-12.4.8-1.33 0-3.06-.267-5.2-.8-1.86-.267-2.8-1.2-2.8-2.8 0-2.133.94-3.6 2.8-4.4 2.14-1.067 4.27-2 6.4-2.8 4-1.333 7.87-2.8 11.6-4.4 3.74-1.867 5.6-5.467 5.6-10.8v-84c0-11.733-3.33-20.8-10-27.2-6.4-6.667-15.06-10.133-26-10.4-9.6 0-18 1.6-25.2 4.8-7.2 2.933-13.6 6.667-19.2 11.2-1.06 1.067-1.86 2.533-2.4 4.4-.53 1.6-.8 3.2-.8 4.8v96.4c0 5.333 1.87 8.933 5.6 10.8a61.221 61.221 0 0 0 11.6 4.4c6.14 1.6 9.2 3.733 9.2 6.4 0 1.6-.66 2.667-2 3.2-1.33.8-3.33 1.2-6 1.2-5.33 0-9.6-.267-12.8-.8-2.93-.267-5.73-.533-8.4-.8-2.66-.267-6.4-.4-11.2-.4-4.53 0-8.26.133-11.2.4-2.66.267-5.6.533-8.8.8-2.93.533-7.06.8-12.4.8Z"/><path fill="url(#h)" d="M1772.72 411.6c-.53 0-1.46-.533-2.8-1.6-1.06-1.067-1.6-1.867-1.6-2.4 0-2.667.27-6.4.8-11.2.8-5.067 1.2-9.333 1.2-12.8v-2.4c-4 6.133-10.4 12.4-19.2 18.8-8.8 6.4-19.86 9.6-33.2 9.6-15.2 0-28.4-4-39.6-12-10.93-8-19.46-18.267-25.6-30.8-5.86-12.533-8.8-25.467-8.8-38.8 0-15.467 3.6-30 10.8-43.6 7.2-13.6 17.47-24.667 30.8-33.2 13.6-8.533 29.74-12.8 48.4-12.8a81.3 81.3 0 0 1 16 1.6c5.6.8 9.87 1.733 12.8 2.8 2.4.8 4.14 1.2 5.2 1.2 1.87 0 2.8-3.2 2.8-9.6v-56.8c0-10.933-1.73-18.267-5.2-22-3.46-3.733-8.4-6.133-14.8-7.2-2.4-.533-3.6-2.267-3.6-5.2 0-2.4 1.07-4 3.2-4.8 11.74-2.933 20.94-5.733 27.6-8.4 6.67-2.667 11.87-4.8 15.6-6.4 1.07-.533 2-.8 2.8-.8 1.07-.267 1.87-.4 2.4-.4 1.6 0 2.54.8 2.8 2.4 0 1.6-.26 4.4-.8 8.4-.26 3.733-.66 9.333-1.2 16.8-.53 7.467-.8 17.2-.8 29.2V360c0 9.067.67 15.733 2 20 1.34 4 3.47 6 6.4 6 1.34 0 3.6-.133 6.8-.4l10.4-.8c4.8-.267 7.2.933 7.2 3.6 0 1.867-.66 3.6-2 5.2-1.06 1.333-2.26 2-3.6 2a154.285 154.285 0 0 0-22 4.8c-7.2 1.867-15.46 4.8-24.8 8.8-2.13 1.067-3.6 1.733-4.4 2-.53.267-1.2.4-2 .4Zm-40.4-22.8c6.94 0 13.74-1.733 20.4-5.2 6.67-3.733 12.54-8.533 17.6-14.4l.4-72c0-7.2-2.13-14.267-6.4-21.2-4-6.933-9.73-12.533-17.2-16.8-7.2-4.533-15.73-6.8-25.6-6.8-6.13 0-13.06 1.867-20.8 5.6-7.73 3.733-14.4 10.4-20 20-5.6 9.333-8.4 22.933-8.4 40.8 0 15.2 2.27 27.467 6.8 36.8 4.54 9.067 10 16 16.4 20.8 6.67 4.8 13.34 8.133 20 10 6.94 1.6 12.54 2.4 16.8 2.4Z"/><path fill="url(#i)" d="M365.65 175.75a40.989 40.989 0 0 0 28.991-12.009 40.981 40.981 0 0 0 12.009-28.991 40.989 40.989 0 0 0 12.009 28.991 41 41 0 0 0 28.991 12.009 41 41 0 0 0-41 41 41 41 0 0 0-41-41Z"/><path fill="url(#j)" d="M230.28 403.5a133.67 133.67 0 0 0 73.51-21.91h-147a133.7 133.7 0 0 0 73.49 21.91Z"/><path fill="url(#k)" d="M134.25 363.08H326.3a134.633 134.633 0 0 0 17.75-22.48H116.51a134.574 134.574 0 0 0 17.74 22.48Z"/><path fill="url(#l)" d="M327.69 176.64H132.86a135.126 135.126 0 0 0-17.29 22.48H345a134.623 134.623 0 0 0-17.31-22.48Z"/><path fill="url(#m)" d="M106.76 322.1h247a133.192 133.192 0 0 0 7.34-22.49H99.42a134.125 134.125 0 0 0 7.34 22.49Z"/><path fill="url(#n)" d="M364.2 258.62H96.36c-.27 3.47-.45 7-.45 10.51 0 4 .21 8 .56 12h267.62c.35-3.94.56-7.93.56-12 0-3.54-.18-7.04-.45-10.51Z"/><path fill="url(#o)" d="M354.4 217.63H106.15a133.518 133.518 0 0 0-7.06 22.48h262.38a133.524 133.524 0 0 0-7.07-22.48Z"/><path fill="url(#p)" d="M245.5 135.65a134.46 134.46 0 0 0-90.94 22.48H306a133.611 133.611 0 0 0-60.5-22.48Z"/><path fill="url(#q)" d="M354.41 404.08a92.86 92.86 0 0 0 60.68-22.49H293.72a92.863 92.863 0 0 0 60.69 22.49Z"/><path fill="url(#r)" d="M354.41 404.08a92.86 92.86 0 0 0 60.68-22.49H293.72a92.863 92.863 0 0 0 60.69 22.49Z"/><path fill="url(#s)" d="M261.18 310.85c.01 3.761.244 7.517.7 11.25h185.05a90.704 90.704 0 0 0 0-22.49h-185a94.713 94.713 0 0 0-.75 11.24Z"/><path fill="url(#t)" d="M261.18 310.85c.01 3.761.244 7.517.7 11.25h185.05a90.704 90.704 0 0 0 0-22.49h-185a94.713 94.713 0 0 0-.75 11.24Z"/><path fill="url(#u)" d="M293.72 240.11h121.37a93.15 93.15 0 0 0-121.37 0Z"/><path fill="url(#v)" d="M293.72 240.11h121.37a93.15 93.15 0 0 0-121.37 0Z"/><path fill="url(#w)" d="M266.06 281.1h176.7a93.111 93.111 0 0 0-11.13-22.48H277.18a93.078 93.078 0 0 0-11.12 22.48Z"/><path fill="url(#x)" d="M266.06 281.1h176.7a93.111 93.111 0 0 0-11.13-22.48H277.18a93.078 93.078 0 0 0-11.12 22.48Z"/><path fill="url(#y)" d="M277.18 363.08h154.45a92.748 92.748 0 0 0 11.13-22.48h-176.7a92.77 92.77 0 0 0 11.12 22.48Z"/><path fill="url(#z)" d="M277.18 363.08h154.45a92.748 92.748 0 0 0 11.13-22.48h-176.7a92.77 92.77 0 0 0 11.12 22.48Z"/><defs><linearGradient id="a" x1="1209" x2="1222.5" y1="176" y2="487.5" gradientUnits="userSpaceOnUse"><stop stop-color="#DFDBEB"/><stop offset="1" stop-color="#fff"/></linearGradient><linearGradient id="b" x1="1209" x2="1222.5" y1="176" y2="487.5" gradientUnits="userSpaceOnUse"><stop stop-color="#DFDBEB"/><stop offset="1" stop-color="#fff"/></linearGradient><linearGradient id="c" x1="1209" x2="1222.5" y1="176" y2="487.5" gradientUnits="userSpaceOnUse"><stop stop-color="#DFDBEB"/><stop offset="1" stop-color="#fff"/></linearGradient><linearGradient id="d" x1="1209" x2="1222.5" y1="176" y2="487.5" gradientUnits="userSpaceOnUse"><stop stop-color="#DFDBEB"/><stop offset="1" stop-color="#fff"/></linearGradient><linearGradient id="e" x1="1209" x2="1222.5" y1="176" y2="487.5" gradientUnits="userSpaceOnUse"><stop stop-color="#DFDBEB"/><stop offset="1" stop-color="#fff"/></linearGradient><linearGradient id="f" x1="1209" x2="1222.5" y1="176" y2="487.5" gradientUnits="userSpaceOnUse"><stop stop-color="#DFDBEB"/><stop offset="1" stop-color="#fff"/></linearGradient><linearGradient id="g" x1="1209" x2="1222.5" y1="176" y2="487.5" gradientUnits="userSpaceOnUse"><stop stop-color="#DFDBEB"/><stop offset="1" stop-color="#fff"/></linearGradient><linearGradient id="h" x1="1209" x2="1222.5" y1="176" y2="487.5" gradientUnits="userSpaceOnUse"><stop stop-color="#DFDBEB"/><stop offset="1" stop-color="#fff"/></linearGradient><linearGradient id="i" x1="379.83" x2="596.42" y1="148.94" y2="365.53" gradientUnits="userSpaceOnUse"><stop offset=".03" stop-color="#FFA3BA"/><stop offset=".13" stop-color="#E38ACA"/><stop offset=".22" stop-color="#C570DB"/><stop offset=".34" stop-color="#B57FDD"/><stop offset=".56" stop-color="#8BA8E0"/><stop offset=".88" stop-color="#48E8E7"/><stop offset=".98" stop-color="#30FFE9"/></linearGradient><linearGradient id="j" x1="74.22" x2="262.06" y1="225.53" y2="413.37" gradientUnits="userSpaceOnUse"><stop stop-color="#FFA3BA"/><stop offset=".35" stop-color="#C570DB"/><stop offset=".45" stop-color="#B57FDD"/><stop offset=".63" stop-color="#8BA8E0"/><stop offset=".89" stop-color="#48E8E7"/><stop offset=".98" stop-color="#30FFE9"/></linearGradient><linearGradient id="k" x1="93.53" x2="281.37" y1="206.22" y2="394.07" gradientUnits="userSpaceOnUse"><stop stop-color="#FFA3BA"/><stop offset=".35" stop-color="#C570DB"/><stop offset=".45" stop-color="#B57FDD"/><stop offset=".63" stop-color="#8BA8E0"/><stop offset=".89" stop-color="#48E8E7"/><stop offset=".98" stop-color="#30FFE9"/></linearGradient><linearGradient id="l" x1="166.75" x2="354.6" y1="133" y2="320.84" gradientUnits="userSpaceOnUse"><stop stop-color="#FFA3BA"/><stop offset=".35" stop-color="#C570DB"/><stop offset=".45" stop-color="#B57FDD"/><stop offset=".63" stop-color="#8BA8E0"/><stop offset=".89" stop-color="#48E8E7"/><stop offset=".98" stop-color="#30FFE9"/></linearGradient><linearGradient id="m" x1="111.42" x2="299.27" y1="188.32" y2="376.17" gradientUnits="userSpaceOnUse"><stop stop-color="#FFA3BA"/><stop offset=".35" stop-color="#C570DB"/><stop offset=".45" stop-color="#B57FDD"/><stop offset=".63" stop-color="#8BA8E0"/><stop offset=".89" stop-color="#48E8E7"/><stop offset=".98" stop-color="#30FFE9"/></linearGradient><linearGradient id="n" x1="130.11" x2="317.96" y1="169.64" y2="357.48" gradientUnits="userSpaceOnUse"><stop stop-color="#FFA3BA"/><stop offset=".35" stop-color="#C570DB"/><stop offset=".45" stop-color="#B57FDD"/><stop offset=".63" stop-color="#8BA8E0"/><stop offset=".89" stop-color="#48E8E7"/><stop offset=".98" stop-color="#30FFE9"/></linearGradient><linearGradient id="o" x1="148.81" x2="336.66" y1="150.94" y2="338.78" gradientUnits="userSpaceOnUse"><stop stop-color="#FFA3BA"/><stop offset=".35" stop-color="#C570DB"/><stop offset=".45" stop-color="#B57FDD"/><stop offset=".63" stop-color="#8BA8E0"/><stop offset=".89" stop-color="#48E8E7"/><stop offset=".98" stop-color="#30FFE9"/></linearGradient><linearGradient id="p" x1="185.94" x2="373.79" y1="113.8" y2="301.65" gradientUnits="userSpaceOnUse"><stop stop-color="#FFA3BA"/><stop offset=".35" stop-color="#C570DB"/><stop offset=".45" stop-color="#B57FDD"/><stop offset=".63" stop-color="#8BA8E0"/><stop offset=".89" stop-color="#48E8E7"/><stop offset=".98" stop-color="#30FFE9"/></linearGradient><linearGradient id="q" x1="250.03" x2="382.82" y1="277.21" y2="410" gradientUnits="userSpaceOnUse"><stop stop-color="#FFA3BA"/><stop offset=".35" stop-color="#C570DB"/><stop offset=".45" stop-color="#B57FDD"/><stop offset=".63" stop-color="#8BA8E0"/><stop offset=".89" stop-color="#48E8E7"/><stop offset=".98" stop-color="#30FFE9"/></linearGradient><linearGradient id="r" x1="250.03" x2="382.82" y1="277.21" y2="410" gradientUnits="userSpaceOnUse"><stop stop-color="#FFA3BA"/><stop offset=".35" stop-color="#C570DB"/><stop offset=".45" stop-color="#B57FDD"/><stop offset=".63" stop-color="#8BA8E0"/><stop offset=".89" stop-color="#48E8E7"/><stop offset=".98" stop-color="#30FFE9"/></linearGradient><linearGradient id="s" x1="285.4" x2="418.19" y1="241.84" y2="374.63" gradientUnits="userSpaceOnUse"><stop stop-color="#FFA3BA"/><stop offset=".35" stop-color="#C570DB"/><stop offset=".45" stop-color="#B57FDD"/><stop offset=".63" stop-color="#8BA8E0"/><stop offset=".89" stop-color="#48E8E7"/><stop offset=".98" stop-color="#30FFE9"/></linearGradient><linearGradient id="t" x1="285.4" x2="418.19" y1="241.84" y2="374.63" gradientUnits="userSpaceOnUse"><stop stop-color="#FFA3BA"/><stop offset=".35" stop-color="#C570DB"/><stop offset=".45" stop-color="#B57FDD"/><stop offset=".63" stop-color="#8BA8E0"/><stop offset=".89" stop-color="#48E8E7"/><stop offset=".98" stop-color="#30FFE9"/></linearGradient><linearGradient id="u" x1="320.77" x2="453.56" y1="206.47" y2="339.27" gradientUnits="userSpaceOnUse"><stop stop-color="#FFA3BA"/><stop offset=".35" stop-color="#C570DB"/><stop offset=".45" stop-color="#B57FDD"/><stop offset=".63" stop-color="#8BA8E0"/><stop offset=".89" stop-color="#48E8E7"/><stop offset=".98" stop-color="#30FFE9"/></linearGradient><linearGradient id="v" x1="320.77" x2="453.56" y1="206.47" y2="339.27" gradientUnits="userSpaceOnUse"><stop stop-color="#FFA3BA"/><stop offset=".35" stop-color="#C570DB"/><stop offset=".45" stop-color="#B57FDD"/><stop offset=".63" stop-color="#8BA8E0"/><stop offset=".89" stop-color="#48E8E7"/><stop offset=".98" stop-color="#30FFE9"/></linearGradient><linearGradient id="w" x1="303.11" x2="435.91" y1="224.13" y2="356.92" gradientUnits="userSpaceOnUse"><stop stop-color="#FFA3BA"/><stop offset=".35" stop-color="#C570DB"/><stop offset=".45" stop-color="#B57FDD"/><stop offset=".63" stop-color="#8BA8E0"/><stop offset=".89" stop-color="#48E8E7"/><stop offset=".98" stop-color="#30FFE9"/></linearGradient><linearGradient id="x" x1="303.11" x2="435.91" y1="224.13" y2="356.92" gradientUnits="userSpaceOnUse"><stop stop-color="#FFA3BA"/><stop offset=".35" stop-color="#C570DB"/><stop offset=".45" stop-color="#B57FDD"/><stop offset=".63" stop-color="#8BA8E0"/><stop offset=".89" stop-color="#48E8E7"/><stop offset=".98" stop-color="#30FFE9"/></linearGradient><linearGradient id="y" x1="267.69" x2="400.48" y1="259.56" y2="392.35" gradientUnits="userSpaceOnUse"><stop stop-color="#FFA3BA"/><stop offset=".35" stop-color="#C570DB"/><stop offset=".45" stop-color="#B57FDD"/><stop offset=".63" stop-color="#8BA8E0"/><stop offset=".89" stop-color="#48E8E7"/><stop offset=".98" stop-color="#30FFE9"/></linearGradient><linearGradient id="z" x1="267.69" x2="400.48" y1="259.56" y2="392.35" gradientUnits="userSpaceOnUse"><stop stop-color="#FFA3BA"/><stop offset=".35" stop-color="#C570DB"/><stop offset=".45" stop-color="#B57FDD"/><stop offset=".63" stop-color="#8BA8E0"/><stop offset=".89" stop-color="#48E8E7"/><stop offset=".98" stop-color="#30FFE9"/></linearGradient></defs></svg>