<svg xmlns="http://www.w3.org/2000/svg" width="600" height="600" fill="none" viewBox="0 0 600 600"><path fill="url(#a)" d="M424.539 175.345A54.344 54.344 0 0 0 478.885 121a54.344 54.344 0 0 0 54.345 54.345 54.346 54.346 0 0 0-54.345 54.346 54.342 54.342 0 0 0-15.918-38.428 54.342 54.342 0 0 0-38.428-15.918Z"/><path fill="url(#b)" d="M245.107 477.227a177.173 177.173 0 0 0 97.437-29.081H147.696a177.226 177.226 0 0 0 97.411 29.081Z"/><path fill="url(#c)" d="M117.819 423.664h254.562a179.047 179.047 0 0 0 23.528-29.864H94.305a178.984 178.984 0 0 0 23.514 29.864Z"/><path fill="url(#d)" d="M374.224 176.525H115.977a179.725 179.725 0 0 0-22.918 29.797h304.109a178.944 178.944 0 0 0-22.944-29.797Z"/><path fill="url(#e)" d="M81.382 369.332h327.397a176.508 176.508 0 0 0 9.729-29.811H71.652a177.794 177.794 0 0 0 9.73 29.811Z"/><path fill="url(#f)" d="M422.617 285.189H67.597c-.358 4.6-.597 9.279-.597 13.945 0 5.302.278 10.604.742 15.905h354.73c.464-5.235.742-10.524.742-15.905 0-4.746-.239-9.345-.597-13.945Z"/><path fill="url(#g)" d="M409.627 230.857H80.573a176.706 176.706 0 0 0-9.358 29.811h347.784a176.79 176.79 0 0 0-9.372-29.811Z"/><path fill="url(#h)" d="M265.281 122.193a178.16 178.16 0 0 0-120.541 29.811h200.734a176.976 176.976 0 0 0-80.193-29.811Z"/><path fill="url(#i)" d="M409.641 477.996a123.085 123.085 0 0 0 80.431-29.85H329.196a123.086 123.086 0 0 0 80.445 29.85Z"/><path fill="url(#j)" d="M409.641 477.996a123.085 123.085 0 0 0 80.431-29.85H329.196a123.086 123.086 0 0 0 80.445 29.85Z"/><path fill="url(#k)" d="M286.065 354.42c.013 4.985.323 9.964.928 14.912h245.283a120.202 120.202 0 0 0 0-29.811H287.059a125.399 125.399 0 0 0-.994 14.899Z"/><path fill="url(#l)" d="M286.065 354.42c.013 4.985.323 9.964.928 14.912h245.283a120.202 120.202 0 0 0 0-29.811H287.059a125.399 125.399 0 0 0-.994 14.899Z"/><path fill="url(#m)" d="M329.196 260.668h160.876a123.431 123.431 0 0 0-160.876 0Z"/><path fill="url(#n)" d="M329.196 260.668h160.876a123.431 123.431 0 0 0-160.876 0Z"/><path fill="url(#o)" d="M292.533 315h234.215a123.289 123.289 0 0 0-14.752-29.811H307.273A123.286 123.286 0 0 0 292.533 315Z"/><path fill="url(#p)" d="M292.533 315h234.215a123.289 123.289 0 0 0-14.752-29.811H307.273A123.286 123.286 0 0 0 292.533 315Z"/><path fill="url(#q)" d="M307.273 423.664h204.723a123.24 123.24 0 0 0 14.752-29.864H292.533a123.255 123.255 0 0 0 14.74 29.864Z"/><path fill="url(#r)" d="M307.273 423.664h204.723a123.24 123.24 0 0 0 14.752-29.864H292.533a123.255 123.255 0 0 0 14.74 29.864Z"/><defs><linearGradient id="a" x1="451.712" x2="506.044" y1="148.186" y2="202.518" gradientUnits="userSpaceOnUse"><stop stop-color="#FF5E87"/><stop offset=".09" stop-color="#E34D8C"/><stop offset=".28" stop-color="#9A2297"/><stop offset=".35" stop-color="#7F119C"/><stop offset=".41" stop-color="#7B1CA0"/><stop offset=".52" stop-color="#713AA9"/><stop offset=".66" stop-color="#616BB9"/><stop offset=".82" stop-color="#4BAFCF"/><stop offset="1" stop-color="#30FFE9"/></linearGradient><linearGradient id="b" x1="46.375" x2="278.576" y1="249.454" y2="481.654" gradientUnits="userSpaceOnUse"><stop stop-color="#FF5E87"/><stop offset=".09" stop-color="#E3528C"/><stop offset=".29" stop-color="#9A3498"/><stop offset=".35" stop-color="#842A9C"/><stop offset=".42" stop-color="#8035A0"/><stop offset=".53" stop-color="#7453AB"/><stop offset=".68" stop-color="#6084BD"/><stop offset=".86" stop-color="#46C7D5"/><stop offset="1" stop-color="#30FFE9"/></linearGradient><linearGradient id="c" x1="71.957" x2="304.171" y1="223.859" y2="456.059" gradientUnits="userSpaceOnUse"><stop stop-color="#FF5E87"/><stop offset=".09" stop-color="#E3528C"/><stop offset=".29" stop-color="#9A3498"/><stop offset=".35" stop-color="#842A9C"/><stop offset=".42" stop-color="#8035A0"/><stop offset=".53" stop-color="#7453AB"/><stop offset=".68" stop-color="#6084BD"/><stop offset=".86" stop-color="#46C7D5"/><stop offset="1" stop-color="#30FFE9"/></linearGradient><linearGradient id="d" x1="169.024" x2="401.224" y1="126.792" y2="359.006" gradientUnits="userSpaceOnUse"><stop stop-color="#FF5E87"/><stop offset=".09" stop-color="#E3528C"/><stop offset=".29" stop-color="#9A3498"/><stop offset=".35" stop-color="#842A9C"/><stop offset=".42" stop-color="#8035A0"/><stop offset=".53" stop-color="#7453AB"/><stop offset=".68" stop-color="#6084BD"/><stop offset=".86" stop-color="#46C7D5"/><stop offset="1" stop-color="#30FFE9"/></linearGradient><linearGradient id="e" x1="95.684" x2="327.884" y1="200.132" y2="432.333" gradientUnits="userSpaceOnUse"><stop stop-color="#FF5E87"/><stop offset=".09" stop-color="#E3528C"/><stop offset=".29" stop-color="#9A3498"/><stop offset=".35" stop-color="#842A9C"/><stop offset=".42" stop-color="#8035A0"/><stop offset=".53" stop-color="#7453AB"/><stop offset=".68" stop-color="#6084BD"/><stop offset=".86" stop-color="#46C7D5"/><stop offset="1" stop-color="#30FFE9"/></linearGradient><linearGradient id="f" x1="120.457" x2="352.658" y1="175.359" y2="407.572" gradientUnits="userSpaceOnUse"><stop stop-color="#FF5E87"/><stop offset=".09" stop-color="#E3528C"/><stop offset=".29" stop-color="#9A3498"/><stop offset=".35" stop-color="#842A9C"/><stop offset=".42" stop-color="#8035A0"/><stop offset=".53" stop-color="#7453AB"/><stop offset=".68" stop-color="#6084BD"/><stop offset=".86" stop-color="#46C7D5"/><stop offset="1" stop-color="#30FFE9"/></linearGradient><linearGradient id="g" x1="145.244" x2="377.444" y1="150.572" y2="382.786" gradientUnits="userSpaceOnUse"><stop stop-color="#FF5E87"/><stop offset=".09" stop-color="#E3528C"/><stop offset=".29" stop-color="#9A3498"/><stop offset=".35" stop-color="#842A9C"/><stop offset=".42" stop-color="#8035A0"/><stop offset=".53" stop-color="#7453AB"/><stop offset=".68" stop-color="#6084BD"/><stop offset=".86" stop-color="#46C7D5"/><stop offset="1" stop-color="#30FFE9"/></linearGradient><linearGradient id="h" x1="194.46" x2="426.66" y1="101.356" y2="333.557" gradientUnits="userSpaceOnUse"><stop stop-color="#FF5E87"/><stop offset=".09" stop-color="#E3528C"/><stop offset=".29" stop-color="#9A3498"/><stop offset=".35" stop-color="#842A9C"/><stop offset=".42" stop-color="#8035A0"/><stop offset=".53" stop-color="#7453AB"/><stop offset=".68" stop-color="#6084BD"/><stop offset=".86" stop-color="#46C7D5"/><stop offset="1" stop-color="#30FFE9"/></linearGradient><linearGradient id="i" x1="299.028" x2="420.536" y1="337.586" y2="459.081" gradientUnits="userSpaceOnUse"><stop stop-color="#FF5E87"/><stop offset=".09" stop-color="#E3528C"/><stop offset=".29" stop-color="#9A3498"/><stop offset=".35" stop-color="#842A9C"/><stop offset=".42" stop-color="#8035A0"/><stop offset=".53" stop-color="#7453AB"/><stop offset=".68" stop-color="#6084BD"/><stop offset=".86" stop-color="#46C7D5"/><stop offset="1" stop-color="#30FFE9"/></linearGradient><linearGradient id="j" x1="299.028" x2="420.536" y1="337.586" y2="459.081" gradientUnits="userSpaceOnUse"><stop stop-color="#FF5E87"/><stop offset=".09" stop-color="#E3528C"/><stop offset=".29" stop-color="#9A3498"/><stop offset=".35" stop-color="#842A9C"/><stop offset=".42" stop-color="#8035A0"/><stop offset=".53" stop-color="#7453AB"/><stop offset=".68" stop-color="#6084BD"/><stop offset=".86" stop-color="#46C7D5"/><stop offset="1" stop-color="#30FFE9"/></linearGradient><linearGradient id="k" x1="345.911" x2="467.419" y1="290.703" y2="412.198" gradientUnits="userSpaceOnUse"><stop stop-color="#FF5E87"/><stop offset=".09" stop-color="#E3528C"/><stop offset=".29" stop-color="#9A3498"/><stop offset=".35" stop-color="#842A9C"/><stop offset=".42" stop-color="#8035A0"/><stop offset=".53" stop-color="#7453AB"/><stop offset=".68" stop-color="#6084BD"/><stop offset=".86" stop-color="#46C7D5"/><stop offset="1" stop-color="#30FFE9"/></linearGradient><linearGradient id="l" x1="345.911" x2="467.419" y1="290.703" y2="412.198" gradientUnits="userSpaceOnUse"><stop stop-color="#FF5E87"/><stop offset=".09" stop-color="#E3528C"/><stop offset=".29" stop-color="#9A3498"/><stop offset=".35" stop-color="#842A9C"/><stop offset=".42" stop-color="#8035A0"/><stop offset=".53" stop-color="#7453AB"/><stop offset=".68" stop-color="#6084BD"/><stop offset=".86" stop-color="#46C7D5"/><stop offset="1" stop-color="#30FFE9"/></linearGradient><linearGradient id="m" x1="392.794" x2="514.302" y1="243.821" y2="365.315" gradientUnits="userSpaceOnUse"><stop stop-color="#FF5E87"/><stop offset=".09" stop-color="#E3528C"/><stop offset=".29" stop-color="#9A3498"/><stop offset=".35" stop-color="#842A9C"/><stop offset=".42" stop-color="#8035A0"/><stop offset=".53" stop-color="#7453AB"/><stop offset=".68" stop-color="#6084BD"/><stop offset=".86" stop-color="#46C7D5"/><stop offset="1" stop-color="#30FFE9"/></linearGradient><linearGradient id="n" x1="392.794" x2="514.302" y1="243.821" y2="365.315" gradientUnits="userSpaceOnUse"><stop stop-color="#FF5E87"/><stop offset=".09" stop-color="#E3528C"/><stop offset=".29" stop-color="#9A3498"/><stop offset=".35" stop-color="#842A9C"/><stop offset=".42" stop-color="#8035A0"/><stop offset=".53" stop-color="#7453AB"/><stop offset=".68" stop-color="#6084BD"/><stop offset=".86" stop-color="#46C7D5"/><stop offset="1" stop-color="#30FFE9"/></linearGradient><linearGradient id="o" x1="369.399" x2="490.894" y1="267.216" y2="388.724" gradientUnits="userSpaceOnUse"><stop stop-color="#FF5E87"/><stop offset=".09" stop-color="#E3528C"/><stop offset=".29" stop-color="#9A3498"/><stop offset=".35" stop-color="#842A9C"/><stop offset=".42" stop-color="#8035A0"/><stop offset=".53" stop-color="#7453AB"/><stop offset=".68" stop-color="#6084BD"/><stop offset=".86" stop-color="#46C7D5"/><stop offset="1" stop-color="#30FFE9"/></linearGradient><linearGradient id="p" x1="369.399" x2="490.894" y1="267.216" y2="388.724" gradientUnits="userSpaceOnUse"><stop stop-color="#FF5E87"/><stop offset=".09" stop-color="#E3528C"/><stop offset=".29" stop-color="#9A3498"/><stop offset=".35" stop-color="#842A9C"/><stop offset=".42" stop-color="#8035A0"/><stop offset=".53" stop-color="#7453AB"/><stop offset=".68" stop-color="#6084BD"/><stop offset=".86" stop-color="#46C7D5"/><stop offset="1" stop-color="#30FFE9"/></linearGradient><linearGradient id="q" x1="322.436" x2="443.931" y1="314.178" y2="435.673" gradientUnits="userSpaceOnUse"><stop stop-color="#FF5E87"/><stop offset=".09" stop-color="#E3528C"/><stop offset=".29" stop-color="#9A3498"/><stop offset=".35" stop-color="#842A9C"/><stop offset=".42" stop-color="#8035A0"/><stop offset=".53" stop-color="#7453AB"/><stop offset=".68" stop-color="#6084BD"/><stop offset=".86" stop-color="#46C7D5"/><stop offset="1" stop-color="#30FFE9"/></linearGradient><linearGradient id="r" x1="322.436" x2="443.931" y1="314.178" y2="435.673" gradientUnits="userSpaceOnUse"><stop stop-color="#FF5E87"/><stop offset=".09" stop-color="#E3528C"/><stop offset=".29" stop-color="#9A3498"/><stop offset=".35" stop-color="#842A9C"/><stop offset=".42" stop-color="#8035A0"/><stop offset=".53" stop-color="#7453AB"/><stop offset=".68" stop-color="#6084BD"/><stop offset=".86" stop-color="#46C7D5"/><stop offset="1" stop-color="#30FFE9"/></linearGradient></defs></svg>