<svg xmlns="http://www.w3.org/2000/svg" width="600" height="600" fill="none" viewBox="0 0 600 600"><path fill="url(#a)" d="M424.541 175.346A54.348 54.348 0 0 0 478.887 121a54.344 54.344 0 0 0 54.345 54.346 54.345 54.345 0 0 0-54.345 54.346 54.346 54.346 0 0 0-54.346-54.346Z"/><path fill="url(#b)" d="M245.11 477.231a177.176 177.176 0 0 0 97.438-29.042h-194.85a177.219 177.219 0 0 0 97.412 29.042Z"/><path fill="url(#c)" d="M117.822 423.653h254.564a178.346 178.346 0 0 0 23.528-29.798H94.308a178.312 178.312 0 0 0 23.514 29.798Z"/><path fill="url(#d)" d="M374.227 176.525H115.979a179.144 179.144 0 0 0-22.918 29.798h304.111a178.421 178.421 0 0 0-22.945-29.798Z"/><path fill="url(#e)" d="M81.382 369.334h327.401a176.508 176.508 0 0 0 9.729-29.811H71.653a177.785 177.785 0 0 0 9.73 29.811Z"/><path fill="url(#f)" d="M422.621 285.191H67.597c-.358 4.599-.597 9.278-.597 13.931 0 5.302.278 10.604.742 15.906h354.733c.464-5.222.742-10.511.742-15.906 0-4.692-.238-9.332-.596-13.931Z"/><path fill="url(#g)" d="M409.63 230.858H80.573a176.932 176.932 0 0 0-9.358 29.798h347.787a177.015 177.015 0 0 0-9.372-29.798Z"/><path fill="url(#h)" d="M265.283 122.193a178.228 178.228 0 0 0-120.541 29.797h200.735a177.112 177.112 0 0 0-80.194-29.797Z"/><path fill="url(#i)" d="M409.644 478a123.085 123.085 0 0 0 80.432-29.811H329.199A123.086 123.086 0 0 0 409.644 478Z"/><path fill="url(#j)" d="M409.644 478a123.085 123.085 0 0 0 80.432-29.811H329.199A123.086 123.086 0 0 0 409.644 478Z"/><path fill="url(#k)" d="M286.066 354.422c.014 4.985.324 9.964.928 14.912h245.285a120.106 120.106 0 0 0 0-29.811H287.06a125.793 125.793 0 0 0-.994 14.899Z"/><path fill="url(#l)" d="M286.066 354.422c.014 4.985.324 9.964.928 14.912h245.285a120.106 120.106 0 0 0 0-29.811H287.06a125.793 125.793 0 0 0-.994 14.899Z"/><path fill="url(#m)" d="M329.199 260.656h160.877a123.468 123.468 0 0 0-160.877 0Z"/><path fill="url(#n)" d="M329.199 260.656h160.877a123.468 123.468 0 0 0-160.877 0Z"/><path fill="url(#o)" d="M292.536 314.988h234.217A123.436 123.436 0 0 0 512 285.191H307.276a123.394 123.394 0 0 0-14.74 29.797Z"/><path fill="url(#p)" d="M292.536 314.988h234.217A123.436 123.436 0 0 0 512 285.191H307.276a123.394 123.394 0 0 0-14.74 29.797Z"/><path fill="url(#q)" d="M307.276 423.653H512a122.97 122.97 0 0 0 14.753-29.798H292.536a122.91 122.91 0 0 0 14.74 29.798Z"/><path fill="url(#r)" d="M307.276 423.653H512a122.97 122.97 0 0 0 14.753-29.798H292.536a122.91 122.91 0 0 0 14.74 29.798Z"/><defs><linearGradient id="a" x1="443.336" x2="730.429" y1="139.809" y2="426.901" gradientUnits="userSpaceOnUse"><stop offset=".03" stop-color="#FFA3BA"/><stop offset=".13" stop-color="#E38ACA"/><stop offset=".22" stop-color="#C570DB"/><stop offset=".34" stop-color="#B57FDD"/><stop offset=".56" stop-color="#8BA8E0"/><stop offset=".88" stop-color="#48E8E7"/><stop offset=".98" stop-color="#30FFE9"/></linearGradient><linearGradient id="b" x1="38.251" x2="287.235" y1="241.33" y2="490.314" gradientUnits="userSpaceOnUse"><stop stop-color="#FFA3BA"/><stop offset=".35" stop-color="#C570DB"/><stop offset=".45" stop-color="#B57FDD"/><stop offset=".63" stop-color="#8BA8E0"/><stop offset=".89" stop-color="#48E8E7"/><stop offset=".98" stop-color="#30FFE9"/></linearGradient><linearGradient id="c" x1="63.848" x2="312.831" y1="215.734" y2="464.73" gradientUnits="userSpaceOnUse"><stop stop-color="#FFA3BA"/><stop offset=".35" stop-color="#C570DB"/><stop offset=".45" stop-color="#B57FDD"/><stop offset=".63" stop-color="#8BA8E0"/><stop offset=".89" stop-color="#48E8E7"/><stop offset=".98" stop-color="#30FFE9"/></linearGradient><linearGradient id="d" x1="160.9" x2="409.897" y1="118.68" y2="367.663" gradientUnits="userSpaceOnUse"><stop stop-color="#FFA3BA"/><stop offset=".35" stop-color="#C570DB"/><stop offset=".45" stop-color="#B57FDD"/><stop offset=".63" stop-color="#8BA8E0"/><stop offset=".89" stop-color="#48E8E7"/><stop offset=".98" stop-color="#30FFE9"/></linearGradient><linearGradient id="e" x1="87.559" x2="336.557" y1="192.007" y2="441.004" gradientUnits="userSpaceOnUse"><stop stop-color="#FFA3BA"/><stop offset=".35" stop-color="#C570DB"/><stop offset=".45" stop-color="#B57FDD"/><stop offset=".63" stop-color="#8BA8E0"/><stop offset=".89" stop-color="#48E8E7"/><stop offset=".98" stop-color="#30FFE9"/></linearGradient><linearGradient id="f" x1="112.332" x2="361.33" y1="167.247" y2="416.231" gradientUnits="userSpaceOnUse"><stop stop-color="#FFA3BA"/><stop offset=".35" stop-color="#C570DB"/><stop offset=".45" stop-color="#B57FDD"/><stop offset=".63" stop-color="#8BA8E0"/><stop offset=".89" stop-color="#48E8E7"/><stop offset=".98" stop-color="#30FFE9"/></linearGradient><linearGradient id="g" x1="137.119" x2="386.116" y1="142.46" y2="391.443" gradientUnits="userSpaceOnUse"><stop stop-color="#FFA3BA"/><stop offset=".35" stop-color="#C570DB"/><stop offset=".45" stop-color="#B57FDD"/><stop offset=".63" stop-color="#8BA8E0"/><stop offset=".89" stop-color="#48E8E7"/><stop offset=".98" stop-color="#30FFE9"/></linearGradient><linearGradient id="h" x1="186.336" x2="435.333" y1="93.23" y2="342.227" gradientUnits="userSpaceOnUse"><stop stop-color="#FFA3BA"/><stop offset=".35" stop-color="#C570DB"/><stop offset=".45" stop-color="#B57FDD"/><stop offset=".63" stop-color="#8BA8E0"/><stop offset=".89" stop-color="#48E8E7"/><stop offset=".98" stop-color="#30FFE9"/></linearGradient><linearGradient id="i" x1="271.287" x2="447.302" y1="309.833" y2="485.847" gradientUnits="userSpaceOnUse"><stop stop-color="#FFA3BA"/><stop offset=".35" stop-color="#C570DB"/><stop offset=".45" stop-color="#B57FDD"/><stop offset=".63" stop-color="#8BA8E0"/><stop offset=".89" stop-color="#48E8E7"/><stop offset=".98" stop-color="#30FFE9"/></linearGradient><linearGradient id="j" x1="271.287" x2="447.302" y1="309.833" y2="485.847" gradientUnits="userSpaceOnUse"><stop stop-color="#FFA3BA"/><stop offset=".35" stop-color="#C570DB"/><stop offset=".45" stop-color="#B57FDD"/><stop offset=".63" stop-color="#8BA8E0"/><stop offset=".89" stop-color="#48E8E7"/><stop offset=".98" stop-color="#30FFE9"/></linearGradient><linearGradient id="k" x1="318.17" x2="494.185" y1="262.948" y2="438.963" gradientUnits="userSpaceOnUse"><stop stop-color="#FFA3BA"/><stop offset=".35" stop-color="#C570DB"/><stop offset=".45" stop-color="#B57FDD"/><stop offset=".63" stop-color="#8BA8E0"/><stop offset=".89" stop-color="#48E8E7"/><stop offset=".98" stop-color="#30FFE9"/></linearGradient><linearGradient id="l" x1="318.17" x2="494.185" y1="262.948" y2="438.963" gradientUnits="userSpaceOnUse"><stop stop-color="#FFA3BA"/><stop offset=".35" stop-color="#C570DB"/><stop offset=".45" stop-color="#B57FDD"/><stop offset=".63" stop-color="#8BA8E0"/><stop offset=".89" stop-color="#48E8E7"/><stop offset=".98" stop-color="#30FFE9"/></linearGradient><linearGradient id="m" x1="365.054" x2="541.068" y1="216.065" y2="392.093" gradientUnits="userSpaceOnUse"><stop stop-color="#FFA3BA"/><stop offset=".35" stop-color="#C570DB"/><stop offset=".45" stop-color="#B57FDD"/><stop offset=".63" stop-color="#8BA8E0"/><stop offset=".89" stop-color="#48E8E7"/><stop offset=".98" stop-color="#30FFE9"/></linearGradient><linearGradient id="n" x1="365.054" x2="541.068" y1="216.065" y2="392.093" gradientUnits="userSpaceOnUse"><stop stop-color="#FFA3BA"/><stop offset=".35" stop-color="#C570DB"/><stop offset=".45" stop-color="#B57FDD"/><stop offset=".63" stop-color="#8BA8E0"/><stop offset=".89" stop-color="#48E8E7"/><stop offset=".98" stop-color="#30FFE9"/></linearGradient><linearGradient id="o" x1="341.646" x2="517.674" y1="239.474" y2="415.488" gradientUnits="userSpaceOnUse"><stop stop-color="#FFA3BA"/><stop offset=".35" stop-color="#C570DB"/><stop offset=".45" stop-color="#B57FDD"/><stop offset=".63" stop-color="#8BA8E0"/><stop offset=".89" stop-color="#48E8E7"/><stop offset=".98" stop-color="#30FFE9"/></linearGradient><linearGradient id="p" x1="341.646" x2="517.674" y1="239.474" y2="415.488" gradientUnits="userSpaceOnUse"><stop stop-color="#FFA3BA"/><stop offset=".35" stop-color="#C570DB"/><stop offset=".45" stop-color="#B57FDD"/><stop offset=".63" stop-color="#8BA8E0"/><stop offset=".89" stop-color="#48E8E7"/><stop offset=".98" stop-color="#30FFE9"/></linearGradient><linearGradient id="q" x1="294.696" x2="470.711" y1="286.436" y2="462.45" gradientUnits="userSpaceOnUse"><stop stop-color="#FFA3BA"/><stop offset=".35" stop-color="#C570DB"/><stop offset=".45" stop-color="#B57FDD"/><stop offset=".63" stop-color="#8BA8E0"/><stop offset=".89" stop-color="#48E8E7"/><stop offset=".98" stop-color="#30FFE9"/></linearGradient><linearGradient id="r" x1="294.696" x2="470.711" y1="286.436" y2="462.45" gradientUnits="userSpaceOnUse"><stop stop-color="#FFA3BA"/><stop offset=".35" stop-color="#C570DB"/><stop offset=".45" stop-color="#B57FDD"/><stop offset=".63" stop-color="#8BA8E0"/><stop offset=".89" stop-color="#48E8E7"/><stop offset=".98" stop-color="#30FFE9"/></linearGradient></defs></svg>